<svg id="Capa_1" enable-background="new 0 0 512 512" height="512" viewBox="0 0 512 512" width="512" xmlns="http://www.w3.org/2000/svg"><g><circle cx="256" cy="256" fill="#7883ee" r="256"/><path d="m402.25 127.394-48.751-48.751-15.615 15.615 26.25 26.25-66.885 66.885-108.749-108.75-15.615 15.615 108.75 108.75-190.635 190.635 113.087 113.087c16.764 3.452 34.126 5.27 51.913 5.27 141.385 0 256-114.615 256-256 0-22.309-2.86-43.949-8.222-64.58l-82.777-82.777z" fill="#4652ca"/><path d="m158.5 78.643h30v60h-30z" fill="#fef7cf"/><path d="m323.5 78.643h30v60h-30z" fill="#fee6b7"/><path d="m91 183.643v210h165l25.235-114.145-25.235-114.145z" fill="#fef7cf"/><path d="m421 183.643-165-18.29v228.29h165z" fill="#fee6b7"/><path d="m91 108.643v75h165l25.235-37.5-25.235-37.5z" fill="#fcc515"/><path d="m256 108.643h165v75h-165z" fill="#fa0"/><g><path d="m233.328 218.862-16.132 16.365-20.543 10.296-3.457 22.713-10.549 20.407 10.549 20.407 3.457 22.713 20.543 10.296 16.131 16.365 22.673-3.763 20.647-66.018-20.647-66.018z" fill="#fa0"/><path d="m294.804 342.059 20.543-10.296 3.457-22.713 10.549-20.407-10.549-20.407-3.457-22.713-20.543-10.296-16.131-16.365-22.673 3.763v132.036l22.672 3.763z" fill="#ff9500"/><path d="m204.653 288.643c0 28.358 22.989 51.347 51.347 51.347l14.921-51.347-14.921-51.347c-28.358 0-51.347 22.989-51.347 51.347z" fill="#fcc515"/><path d="m307.347 288.643c0-28.358-22.989-51.347-51.347-51.347v102.694c28.358 0 51.347-22.989 51.347-51.347z" fill="#fa0"/></g></g></svg>