<svg height="512pt" viewBox="0 0 512 512" width="512pt" xmlns="http://www.w3.org/2000/svg"><path d="m512 256c0 141.386719-114.613281 256-256 256s-256-114.613281-256-256 114.613281-256 256-256 256 114.613281 256 256zm0 0" fill="#ff6339"/><path d="m512 256c0-33.023438-6.257812-64.585938-17.644531-93.570312l-92.4375-92.441407-288.304688 14.851563-15.183593 349.519531 57.214843 57.214844c30.816407 13.144531 64.734375 20.425781 100.355469 20.425781 141.386719 0 256-114.613281 256-256zm0 0" fill="#fa0023"/><path d="m113.613281 69.992188h288.304688v349.515624h-288.304688zm0 0" fill="#57545c"/><path d="m242.585938 69.996094h159.328124v349.507812h-159.328124zm0 0" fill="#3a383f"/><path d="m98.429688 84.839844v349.519531h288.304687v-263.128906l-86.386719-86.390625zm0 0" fill="#fff"/><path d="m386.734375 171.226562v263.128907h-144.148437v-349.511719h57.757812zm0 0" fill="#fff5ca"/><path d="m386.796875 171.171875h-86.386719v-86.390625zm0 0" fill="#ffe031"/><path d="m132.5625 193.792969h307.902344v179.945312h-307.902344zm0 0" fill="#a4ffb3"/><path d="m286.511719 193.792969h153.953125v179.941406h-153.953125zm0 0" fill="#00ec88"/><path d="m141.824219 202.863281h289.378906v161.804688h-289.378906zm0 0" fill="#00ec88"/><path d="m286.511719 202.859375h144.695312v161.8125h-144.695312zm0 0" fill="#00ca76"/><path d="m349.660156 283.765625c0 34.875-28.273437 63.144531-63.148437 63.144531s-63.144531-28.269531-63.144531-63.144531 28.269531-63.148437 63.144531-63.148437 63.148437 28.273437 63.148437 63.148437zm0 0" fill="#a4ffb3"/><path d="m349.65625 283.769531c0 34.871094-28.269531 63.144531-63.144531 63.144531v-126.296874c34.871093 0 63.144531 28.273437 63.144531 63.152343zm0 0" fill="#00ec88"/><path d="m203.441406 283.765625c0 12.773437-10.355468 23.128906-23.132812 23.128906-12.773438 0-23.128906-10.355469-23.128906-23.128906s10.355468-23.128906 23.128906-23.128906c12.777344 0 23.132812 10.355469 23.132812 23.128906zm0 0" fill="#a4ffb3"/><path d="m415.84375 283.765625c0 12.773437-10.355469 23.128906-23.128906 23.128906-12.773438 0-23.128906-10.355469-23.128906-23.128906s10.355468-23.128906 23.128906-23.128906c12.773437 0 23.128906 10.355469 23.128906 23.128906zm0 0" fill="#00ec88"/><path d="m317.476562 292.121094c-1.246093-2.613282-3.023437-4.855469-5.324218-6.730469-2.304688-1.871094-5.113282-3.433594-8.429688-4.679687-3.320312-1.25-7.007812-2.421876-11.0625-3.515626-3.125-.777343-5.875-1.519531-8.253906-2.222656-2.382812-.703125-4.351562-1.480468-5.914062-2.339844-1.5625-.859374-2.75-1.855468-3.570313-2.984374-.816406-1.132813-1.226563-2.558594-1.226563-4.273438 0-2.964844 1.089844-5.269531 3.277344-6.90625 2.183594-1.640625 5.503906-2.460938 9.949219-2.460938 2.5 0 4.957031.3125 7.375.9375s4.664063 1.386719 6.730469 2.285157c2.070312.898437 3.824218 1.8125 5.269531 2.75 1.441406.933593 2.4375 1.679687 2.984375 2.222656l7.144531-13.109375c-3.671875-2.5-7.960937-4.664062-12.878906-6.5-2.757813-1.027344-5.664063-1.753906-8.714844-2.207031v-12.765625h-16.640625v13.222656c-.890625.203125-1.765625.433594-2.625.695312-3.667968 1.132813-6.890625 2.792969-9.660156 4.976563-2.769531 2.1875-4.933594 4.917969-6.496094 8.195313-1.5625 3.277343-2.339844 7.023437-2.339844 11.238281 0 3.203125.484376 5.953125 1.460938 8.253906.976562 2.304687 2.4375 4.332031 4.390625 6.085937 1.949219 1.757813 4.390625 3.28125 7.316406 4.566407 2.925781 1.289062 6.378907 2.480469 10.363281 3.574219 3.277344.933593 6.242188 1.792968 8.894532 2.574218s4.917968 1.640625 6.789062 2.574219c1.875.9375 3.316406 2.03125 4.332032 3.277344 1.015624 1.25 1.523437 2.773437 1.523437 4.566406 0 5.699219-4.449219 8.546875-13.347656 8.546875-3.199219 0-6.320313-.390625-9.363281-1.171875-3.042969-.777344-5.816407-1.734375-8.3125-2.867187-2.5-1.128907-4.664063-2.261719-6.5-3.394532-1.832032-1.132812-3.101563-2.050781-3.804688-2.75l-7.140625 13.929688c4.839844 3.433594 10.304687 6.085937 16.390625 7.960937 2.695312.828125 5.402344 1.464844 8.128906 1.925781v13.105469h16.640625v-12.605469c1.828125-.222656 3.625-.539062 5.375-.960937 3.707031-.898437 6.984375-2.324219 9.835938-4.273437 2.847656-1.953126 5.109375-4.507813 6.789062-7.667969 1.675781-3.164063 2.515625-6.96875 2.515625-11.414063.003906-3.824218-.621094-7.046875-1.871094-9.664062zm0 0" fill="#00ca76"/><g fill="#00a863"><path d="m286.921875 256.007812c-.136719 0-.273437 0-.410156.007813v-26.398437h8.324219v12.769531c3.050781.449219 5.957031 1.175781 8.710937 2.210937 4.917969 1.832032 9.210937 3.996094 12.878906 6.496094l-7.144531 13.109375c-.542969-.546875-1.542969-1.289063-2.984375-2.226563s-3.195313-1.851562-5.261719-2.746093c-2.074218-.898438-4.316406-1.660157-6.738281-2.285157-2.417969-.625-4.875-.9375-7.375-.9375zm0 0"/><path d="m319.351562 301.78125c0 4.445312-.84375 8.257812-2.515624 11.414062-1.683594 3.164063-3.941407 5.71875-6.792969 7.671876-2.851563 1.945312-6.128907 3.371093-9.835938 4.269531-1.753906.425781-3.546875.738281-5.371093.960937v12.605469h-8.324219v-26.796875c.753906.039062 1.515625.0625 2.285156.0625 8.894531 0 13.339844-2.851562 13.339844-8.546875 0-1.792969-.503907-3.316406-1.519531-4.5625-1.011719-1.25-2.460938-2.347656-4.328126-3.285156-1.871093-.9375-4.140624-1.792969-6.789062-2.570313-.953125-.28125-1.953125-.578125-2.988281-.875v-16.554687c1.859375.519531 3.910156 1.058593 6.144531 1.617187 4.058594 1.097656 7.742188 2.269532 11.066406 3.519532 3.316406 1.246093 6.128906 2.808593 8.425782 4.683593 2.300781 1.875 4.078124 4.117188 5.328124 6.726563 1.25 2.621094 1.875 5.839844 1.875 9.660156zm0 0"/></g></svg>