<svg id="Layer_1" height="512" viewBox="0 0 128 128" width="512" xmlns="http://www.w3.org/2000/svg" data-name="Layer 1"><path d="m45.5 10.246h71.5v40.006h-71.5z" fill="#00b5bc"/><path d="m81.375 10.246h35.625v40.006h-35.625z" fill="#0b789c"/><path d="m32.1 100.055a15.949 15.949 0 0 0 -15.947 15.945h31.9a15.949 15.949 0 0 0 -15.953-15.945z" fill="#00b5bc"/><circle cx="32.102" cy="94.549" fill="#f6ebd8" r="8.734"/><path d="m64 100.055a15.949 15.949 0 0 0 -15.949 15.945h31.9a15.949 15.949 0 0 0 -15.951-15.945z" fill="#5f69e2"/><circle cx="64" cy="94.549" fill="#f6ebd8" r="8.734"/><path d="m95.9 100.055a15.949 15.949 0 0 0 -15.951 15.945h31.9a15.949 15.949 0 0 0 -15.949-15.945z" fill="#ffd322"/><circle cx="95.898" cy="94.549" fill="#f6ebd8" r="8.734"/><path d="m26.949 50.252a15.949 15.949 0 0 0 -15.949 15.948h31.9a15.949 15.949 0 0 0 -15.951-15.948z" fill="#ff415a"/><circle cx="26.949" cy="44.746" fill="#f6ebd8" r="8.734"/><circle cx="64.887" cy="30.249" fill="#ffd322" r="9.621"/><path d="m71.206 73.079h-5.433l10-22.827h5.433z" fill="#9f5f4b"/><path d="m91.206 73.079h5.433l-10-22.827h-5.433z" fill="#724435"/><path d="m32.1 100.055v15.945h15.951a15.949 15.949 0 0 0 -15.951-15.945z" fill="#0b789c"/><path d="m64 100.055v15.945h15.949a15.949 15.949 0 0 0 -15.949-15.945z" fill="#3440da"/><path d="m95.9 100.055v15.945h15.949a15.949 15.949 0 0 0 -15.949-15.945z" fill="#ff9e21"/><path d="m40.836 94.549a8.734 8.734 0 0 0 -8.736-8.734v17.468a8.734 8.734 0 0 0 8.736-8.734z" fill="#ecd5af"/><path d="m26.949 50.252v15.948h15.951a15.949 15.949 0 0 0 -15.951-15.948z" fill="#b30042"/><path d="m35.683 44.746a8.734 8.734 0 0 0 -8.734-8.734v17.468a8.734 8.734 0 0 0 8.734-8.734z" fill="#ecd5af"/><path d="m104.632 94.549a8.734 8.734 0 0 0 -8.732-8.734v17.468a8.734 8.734 0 0 0 8.732-8.734z" fill="#ecd5af"/><path d="m72.734 94.549a8.734 8.734 0 0 0 -8.734-8.734v17.468a8.734 8.734 0 0 0 8.734-8.734z" fill="#ecd5af"/><g fill="#500000"><path d="m31.875 114.254h-.625a1.75 1.75 0 1 0 0 3.5h.625a1.75 1.75 0 1 0 0-3.5z"/><path d="m104.49 100.538a10.513 10.513 0 1 0 -2.591 2.594 14.324 14.324 0 0 1 8.088 11.122h-22.823a1.75 1.75 0 0 0 0 3.5h24.683a1.75 1.75 0 0 0 1.753-1.754 17.831 17.831 0 0 0 -9.11-15.462zm-15.576-5.989a6.984 6.984 0 1 1 6.984 6.983 6.992 6.992 0 0 1 -6.984-6.983z"/><path d="m85.5 103.783a1.749 1.749 0 0 0 -2.474.071 17.68 17.68 0 0 0 -3.085 4.513 17.857 17.857 0 0 0 -7.35-7.83 10.484 10.484 0 1 0 -17.184 0 17.856 17.856 0 0 0 -7.357 7.845 17.856 17.856 0 0 0 -7.357-7.845 10.484 10.484 0 1 0 -17.184 0 17.828 17.828 0 0 0 -9.109 15.463 1.75 1.75 0 0 0 1.75 1.75h7.722a1.75 1.75 0 1 0 0-3.5h-5.859a14.321 14.321 0 0 1 8.087-11.118 10.426 10.426 0 0 0 12 0 14.324 14.324 0 0 1 8.088 11.122h-6.875a1.75 1.75 0 1 0 0 3.5h40.636a1.75 1.75 0 0 0 1.751-1.754 14.143 14.143 0 0 1 3.873-9.747 1.75 1.75 0 0 0 -.073-2.47zm-60.382-9.234a6.984 6.984 0 1 1 6.984 6.983 6.992 6.992 0 0 1 -6.984-6.983zm38.882-6.985a6.984 6.984 0 1 1 -6.984 6.984 6.992 6.992 0 0 1 6.984-6.984zm-14.089 26.69a14.323 14.323 0 0 1 8.089-11.122 10.426 10.426 0 0 0 12 0 14.324 14.324 0 0 1 8.088 11.122z"/><path d="m44.648 66.2a17.832 17.832 0 0 0 -9.106-15.466 10.484 10.484 0 1 0 -17.185 0 17.83 17.83 0 0 0 -9.107 15.466 1.75 1.75 0 0 0 1.75 1.751h31.9a1.75 1.75 0 0 0 1.748-1.751zm-17.7-28.439a6.984 6.984 0 1 1 -6.984 6.984 6.992 6.992 0 0 1 6.985-6.983zm-14.088 26.69a14.322 14.322 0 0 1 8.088-11.121 10.426 10.426 0 0 0 12 0 14.324 14.324 0 0 1 8.087 11.121z"/><path d="m117 8.5a1.75 1.75 0 0 0 -1.75 1.75v38.25h-56.75a1.75 1.75 0 1 0 0 3.5h14.6l-8.93 20.377a1.75 1.75 0 0 0 1.6 2.452h5.433a1.75 1.75 0 0 0 1.6-1.048l8.4-19.168 8.4 19.168a1.75 1.75 0 0 0 1.6 1.048h5.433a1.75 1.75 0 0 0 1.6-2.452l-8.92-20.377h27.684a1.75 1.75 0 0 0 1.75-1.75v-40.004a1.75 1.75 0 0 0 -1.75-1.746zm-46.938 62.829h-1.611l8.466-19.329h1.611zm23.9 0h-1.612l-8.467-19.329h1.611z"/><path d="m45.5 52h6a1.75 1.75 0 0 0 0-3.5h-4.25v-36.5h63.25a1.75 1.75 0 1 0 0-3.5h-65a1.75 1.75 0 0 0 -1.75 1.75v40.002a1.75 1.75 0 0 0 1.75 1.748z"/><path d="m53.516 30.249a11.371 11.371 0 1 0 11.371-11.371 11.384 11.384 0 0 0 -11.371 11.371zm19.242 0a7.871 7.871 0 1 1 -7.871-7.871 7.88 7.88 0 0 1 7.871 7.871z"/><path d="m107 21.381h-23.875a1.75 1.75 0 0 0 0 3.5h23.875a1.75 1.75 0 1 0 0-3.5z"/><path d="m107 28.5h-12.667a1.75 1.75 0 0 0 0 3.5h12.667a1.75 1.75 0 0 0 0-3.5z"/><path d="m83.125 32h4.625a1.75 1.75 0 0 0 0-3.5h-4.625a1.75 1.75 0 0 0 0 3.5z"/><path d="m83.125 39.117h23.875a1.75 1.75 0 1 0 0-3.5h-23.875a1.75 1.75 0 0 0 0 3.5z"/></g></svg>