<?xml version="1.0" encoding="iso-8859-1"?>
<!-- Generator: Adobe Illustrator 19.0.0, SVG Export Plug-In . SVG Version: 6.00 Build 0)  -->
<svg version="1.1" id="Capa_1" xmlns="http://www.w3.org/2000/svg" xmlns:xlink="http://www.w3.org/1999/xlink" x="0px" y="0px"
	 viewBox="0 0 480 480" style="enable-background:new 0 0 480 480;" xml:space="preserve">
<path style="fill:#FF1D25;" d="M416,80v240h-64v-40c0-8.8-7.2-16-16-16h-80v-56c0-8.72-7.12-15.84-15.84-15.84h-0.32
	c-8.72,0-15.84,7.12-15.84,15.84v88h-9.84c-10.88,0-18.56,10.72-15.12,21.04L200,320H64V80H416z"/>
<g>
	<path style="fill:#06AAE9;" d="M218.64,376H24c-8.8,0-16-7.2-16-16v-16h200L218.64,376z"/>
	<path style="fill:#06AAE9;" d="M472,344v16c0,8.8-7.2,16-16,16H352v-32H472z"/>
	<polygon style="fill:#06AAE9;" points="128,8 112,24 128,40 144,40 144,8 	"/>
	<path style="fill:#06AAE9;" d="M376,8h-16v32h16c8.836,0,16-7.164,16-16C392,15.163,384.836,8,376,8z"/>
</g>
<g>
	<rect x="144" y="8" style="fill:#FFFF00;" width="216" height="32"/>
	<path style="fill:#FFFF00;" d="M352,280v112H224l-5.36-16L208,344l-8-24l-0.96-2.96c-3.44-10.32,4.24-21.04,15.12-21.04H224v-88
		c0-8.72,7.12-15.84,15.84-15.84h0.32c8.72,0,15.84,7.12,15.84,15.84v56h80C344.8,264,352,271.2,352,280z"/>
</g>
<g>
	<rect x="288" y="264" style="fill:#73A6BA;" width="16" height="32"/>
	<rect x="320" y="264" style="fill:#73A6BA;" width="16" height="32"/>
	<rect x="256" y="264" style="fill:#73A6BA;" width="16" height="32"/>
</g>
<rect x="224" y="392" style="fill:#06AAE9;" width="128" height="80"/>
<g>
	<path style="fill:#FFFF00;" d="M112,168H96v-48c0-4.418,3.578-8,8-8h48v16h-40V168z"/>
	<rect x="96" y="184" style="fill:#FFFF00;" width="16" height="16"/>
	<path style="fill:#FFFF00;" d="M280,200c0,16.4-9.92,30.48-24,36.72V208c0-8.72-7.12-15.84-15.84-15.84h-0.32
		c-8.72,0-15.84,7.12-15.84,15.84v28.72c-14.08-6.24-24-20.32-24-36.72c0-22.08,17.92-40,40-40S280,177.92,280,200z"/>
</g>
<path style="fill:#06AAE9;" d="M56,424c-26.51,0-48,21.49-48,48h88v-48H56z"/>
<g>
	<path style="fill:#FFFF00;" d="M96,424v48h48C144,445.49,122.51,424,96,424z"/>
	<rect x="232" y="114.344" style="fill:#FFFF00;" width="16" height="32"/>
	<rect x="304" y="202.32" style="fill:#FFFF00;" width="32" height="16"/>
	<rect x="144" y="202.32" style="fill:#FFFF00;" width="32" height="16"/>
	
		<rect x="172.004" y="133.373" transform="matrix(-0.7071 0.7071 -0.7071 -0.7071 413.5957 129.3726)" style="fill:#FFFF00;" width="16" height="33.944"/>
	
		<rect x="291.036" y="142.335" transform="matrix(-0.7071 0.7071 -0.7071 -0.7071 632.1051 38.8443)" style="fill:#FFFF00;" width="33.944" height="16"/>
	
		<rect x="163.036" y="254.343" transform="matrix(-0.7071 0.7071 -0.7071 -0.7071 492.798 320.5632)" style="fill:#FFFF00;" width="33.944" height="16"/>
</g>
<rect x="184" y="16" style="fill:#FF1D25;" width="32" height="16"/>
<rect x="232" y="16" style="fill:#FFFF00;" width="32" height="16"/>
<g>
	<path style="fill:#29485A;" d="M360,336v-8h64V72H56v256h138.258l2.665,8H0v24c0,13.234,10.766,24,24,24h188.913l3.087,9.269V480
		h144v-80v-16h96c13.234,0,24-10.766,24-24v-24H360z M24,368c-4.414,0-8-3.59-8-8v-8h186.227l5.32,16H24z M72,312V88h336v224h-48
		v-32c0-13.234-10.766-24-24-24h-72v-14.506c14.701-8.582,24-24.294,24-41.494c0-26.469-21.531-48-48-48s-48,21.531-48,48
		c0,17.199,9.299,32.912,24,41.494V288h-1.844c-7.773,0-14.844,3.625-19.398,9.945c-1.007,1.396-1.788,2.906-2.463,4.456
		c-0.161,0.369-0.312,0.733-0.453,1.109c-0.595,1.573-1.078,3.181-1.334,4.833c-0.003,0.023-0.002,0.045-0.005,0.068
		c-0.18,1.187-0.281,2.387-0.283,3.588H72z M216,208v13.148c-5.055-5.758-8-13.23-8-21.148c0-17.645,14.352-32,32-32
		s32,14.355,32,32c0,7.918-2.945,15.391-8,21.148V208c0-13.145-10.695-23.84-24.156-23.84C226.695,184.16,216,194.855,216,208z
		 M344,464H232v-64h112V464z M229.758,384l-23.125-69.488c-0.828-2.465-0.422-5.094,1.109-7.211
		c1.508-2.098,3.852-3.301,6.414-3.301H232v-54.984V208c0-4.324,3.516-7.84,8.156-7.84c4.328,0,7.844,3.516,7.844,7.84v41.016V264v8
		v24h16v-24h16v24h16v-24h16v24h16v-24h8c4.414,0,8,3.59,8,8v48v8v48H229.758z M464,360c0,4.41-3.586,8-8,8h-96v-16h104V360z"/>
	<path style="fill:#29485A;" d="M376,48c13.234,0,24-10.766,24-24S389.234,0,376,0H124.688l-24,24l24,24H376z M384,24
		c0,4.41-3.586,8-8,8h-8V16h8C380.414,16,384,19.59,384,24z M352,16v16H248V16H352z M216,16v16h-16V16H216z M168,32h-16V16h16V32z
		 M131.313,16H136v16h-4.688l-8-8L131.313,16z"/>
	<polygon style="fill:#29485A;" points="144,104 88,104 88,160 104,160 104,120 144,120 	"/>
	<rect x="88" y="176" style="fill:#29485A;" width="16" height="16"/>
	<path style="fill:#29485A;" d="M96,416H56c-30.875,0-56,25.121-56,56v8h152v-8C152,441.121,126.875,416,96,416z M56,432h32v32
		H16.805C20.523,445.766,36.68,432,56,432z M104,464v-31.124c15.639,3.198,28.005,15.483,31.195,31.124H104z"/>
	<rect x="232" y="104" style="fill:#29485A;" width="16" height="32"/>
	<rect x="304" y="192" style="fill:#29485A;" width="32" height="16"/>
	<rect x="144" y="192" style="fill:#29485A;" width="32" height="16"/>
	
		<rect x="172.002" y="123.066" transform="matrix(-0.7071 0.7071 -0.7071 -0.7071 406.304 111.7803)" style="fill:#29485A;" width="16" height="33.944"/>
	
		<rect x="291.041" y="131.997" transform="matrix(-0.7071 0.7071 -0.7071 -0.7071 624.8044 21.1916)" style="fill:#29485A;" width="33.944" height="16"/>
	
		<rect x="163.034" y="244.029" transform="matrix(-0.7071 0.7071 -0.7071 -0.7071 485.5007 302.9572)" style="fill:#29485A;" width="33.944" height="16"/>
</g>
<g>
</g>
<g>
</g>
<g>
</g>
<g>
</g>
<g>
</g>
<g>
</g>
<g>
</g>
<g>
</g>
<g>
</g>
<g>
</g>
<g>
</g>
<g>
</g>
<g>
</g>
<g>
</g>
<g>
</g>
</svg>
